<svg width="300" height="272" viewBox="0 0 300 272" fill="none" xmlns="http://www.w3.org/2000/svg">
<mask id="mask0_8_191" style="mask-type:alpha" maskUnits="userSpaceOnUse" x="0" y="0" width="300" height="300">
<rect width="300" height="300" fill="#D9D9D9"/>
</mask>
<g mask="url(#mask0_8_191)">
<path d="M86.3315 79.5362H95.1491L106.529 131.816L117.997 79.5362H126.755L127.947 144H120.708L119.993 97.2012L109.09 144H103.996L93.183 97.2012L92.468 144H85.1399L86.3315 79.5362Z" fill="#293069"/>
<path d="M153.944 144.715C147.584 144.715 143.108 142.823 140.509 139.025C137.902 135.235 136.607 129.999 136.607 123.326V100.567C136.607 93.4999 137.873 88.1378 140.42 84.4812C142.981 80.832 147.487 79 153.944 79C159.738 79 163.893 80.5714 166.396 83.7067C168.913 86.8271 170.179 91.437 170.179 97.5289V102.623H161.689V98.0949C161.689 95.116 161.548 92.8371 161.272 91.2434C161.011 89.6571 160.334 88.3836 159.246 87.4303C158.152 86.4771 156.416 86.0005 154.033 86.0005C151.591 86.0005 149.773 86.5218 148.582 87.5495C147.39 88.5847 146.601 90.0146 146.228 91.8391C145.871 93.6712 145.692 96.1213 145.692 99.1971V124.756C145.692 128.033 145.945 130.61 146.467 132.472C147.003 134.319 147.867 135.644 149.058 136.434C150.25 137.23 151.903 137.625 154.033 137.625C156.312 137.625 158.01 137.134 159.127 136.136C160.237 135.123 160.944 133.745 161.242 131.995C161.54 130.252 161.689 127.854 161.689 124.816V120.05H170.179V124.816C170.179 131.235 168.965 136.158 166.545 139.591C164.139 143.01 159.939 144.715 153.944 144.715Z" fill="#293069"/>
<path d="M195.245 144.715C188.929 144.715 184.401 142.928 181.661 139.353C178.935 135.763 177.58 130.58 177.58 123.803V99.3758C177.58 92.6881 178.957 87.624 181.72 84.1833C184.476 80.7278 188.989 79 195.245 79C201.5 79 205.984 80.7427 208.709 84.2131C211.45 87.691 212.82 92.7477 212.82 99.3758V123.863C212.82 130.558 211.435 135.711 208.68 139.323C205.939 142.92 201.456 144.715 195.245 144.715ZM195.245 137.625C198.581 137.625 200.83 136.657 202.007 134.706C203.176 132.74 203.764 129.761 203.764 125.769V97.5289C203.764 93.5967 203.176 90.6997 202.007 88.8304C200.83 86.9463 198.581 86.0005 195.245 86.0005C191.849 86.0005 189.562 86.9463 188.393 88.8304C187.239 90.6997 186.665 93.5967 186.665 97.5289V125.769C186.665 129.761 187.239 132.74 188.393 134.706C189.562 136.657 191.849 137.625 195.245 137.625Z" fill="#293069"/>
<path d="M21.619 201.282L18.9976 192.792H18.938C19.0348 194.52 19.0869 195.675 19.0869 196.248V201.282H17.0315V190.469H20.1593L22.7212 198.75H22.751L25.4618 190.469H28.5897V201.282H26.4448V196.159C26.4448 195.92 26.4448 195.645 26.4448 195.325C26.4597 195.012 26.5044 194.163 26.564 192.792H26.5044L23.7042 201.282H21.619Z" fill="#293069"/>
<path d="M43.999 201.282L43.2245 198.72H39.2625L38.488 201.282H36.0155L39.8285 190.409H42.6287L46.4715 201.282H43.999ZM42.6585 196.784C41.9435 194.446 41.5339 193.12 41.4371 192.822C41.3552 192.524 41.2956 192.286 41.2584 192.107C41.0945 192.725 40.6328 194.282 39.8583 196.784H42.6585Z" fill="#293069"/>
<path d="M56.2002 195.265H56.9449C57.6598 195.265 58.1812 195.146 58.5237 194.907C58.8812 194.669 59.0599 194.282 59.0599 193.746C59.0599 193.254 58.8812 192.897 58.5237 192.673C58.1663 192.457 57.6152 192.346 56.8853 192.346H56.2002V195.265ZM56.2002 197.142V201.282H53.9064V190.469H57.0641C58.5312 190.469 59.611 190.737 60.3111 191.273C61.026 191.809 61.3835 192.614 61.3835 193.686C61.3835 194.341 61.2048 194.922 60.8473 195.414C60.4898 195.913 59.9908 196.3 59.3578 196.576C60.9813 199.003 62.0463 200.567 62.5453 201.282H60.0132L57.4215 197.142H56.2002Z" fill="#293069"/>
<path d="M78.674 201.282H76.0823L73.2226 196.725L72.2693 197.41V201.282H69.9755V190.469H72.2693V195.414L73.163 194.133L76.1121 190.469H78.6442L74.861 195.235L78.674 201.282Z" fill="#293069"/>
<path d="M92.3299 201.282H86.1039V190.469H92.3299V192.346H88.3977V194.729H92.0618V196.605H88.3977V199.376H92.3299V201.282Z" fill="#293069"/>
<path d="M104.826 201.282H102.533V192.375H99.5834V190.469H107.775V192.375H104.826V201.282Z" fill="#293069"/>
<path d="M115.496 201.282V190.469H117.79V201.282H115.496Z" fill="#293069"/>
<path d="M136.169 201.282H133.25L128.543 193.09H128.484C128.581 194.543 128.633 195.578 128.633 196.188V201.282H126.577V190.469H129.467L134.173 198.572H134.203C134.144 197.164 134.114 196.173 134.114 195.593V190.469H136.169V201.282Z" fill="#293069"/>
<path d="M149.074 195.205H153.363V200.806C152.663 201.044 152.008 201.208 151.397 201.282C150.779 201.379 150.154 201.431 149.521 201.431C147.867 201.431 146.616 200.955 145.767 200.001C144.911 199.033 144.486 197.648 144.486 195.861C144.486 194.118 144.978 192.755 145.976 191.78C146.966 190.789 148.344 190.29 150.116 190.29C151.226 190.29 152.299 190.521 153.334 190.975L152.589 192.792C151.792 192.42 150.965 192.226 150.116 192.226C149.119 192.226 148.329 192.569 147.733 193.239C147.138 193.895 146.84 194.781 146.84 195.89C146.84 197.067 147.078 197.968 147.555 198.601C148.031 199.219 148.731 199.525 149.67 199.525C150.146 199.525 150.63 199.48 151.129 199.376V197.112H149.074V195.205Z" fill="#293069"/>
<path d="M178.377 198.274C178.377 199.249 178.019 200.024 177.304 200.597C176.604 201.156 175.636 201.431 174.385 201.431C173.231 201.431 172.21 201.215 171.317 200.776V198.661C172.047 198.981 172.665 199.212 173.164 199.346C173.678 199.465 174.147 199.525 174.564 199.525C175.078 199.525 175.465 199.435 175.726 199.257C176.001 199.063 176.143 198.773 176.143 198.393C176.143 198.177 176.083 197.991 175.964 197.827C175.845 197.648 175.666 197.492 175.428 197.35C175.204 197.194 174.742 196.948 174.028 196.605C173.372 196.308 172.873 196.025 172.538 195.742C172.196 195.444 171.927 195.109 171.734 194.729C171.555 194.334 171.466 193.887 171.466 193.388C171.466 192.435 171.778 191.683 172.419 191.124C173.074 190.573 173.975 190.29 175.13 190.29C175.681 190.29 176.21 190.365 176.709 190.499C177.222 190.64 177.759 190.826 178.317 191.065L177.602 192.852C177.021 192.614 176.545 192.457 176.172 192.375C175.793 192.279 175.413 192.226 175.04 192.226C174.601 192.226 174.266 192.331 174.028 192.524C173.804 192.725 173.7 192.986 173.7 193.299C173.7 193.522 173.737 193.708 173.819 193.865C173.916 194.006 174.065 194.148 174.266 194.282C174.482 194.423 174.966 194.669 175.726 195.027C176.738 195.526 177.431 196.025 177.811 196.516C178.183 196.993 178.377 197.581 178.377 198.274Z" fill="#293069"/>
<path d="M192.639 201.282H186.413V190.469H192.639V192.346H188.707V194.729H192.371V196.605H188.707V199.376H192.639V201.282Z" fill="#293069"/>
<path d="M203.259 195.265H204.004C204.719 195.265 205.24 195.146 205.582 194.907C205.94 194.669 206.119 194.282 206.119 193.746C206.119 193.254 205.94 192.897 205.582 192.673C205.225 192.457 204.674 192.346 203.944 192.346H203.259V195.265ZM203.259 197.142V201.282H200.965V190.469H204.123C205.59 190.469 206.67 190.737 207.37 191.273C208.085 191.809 208.442 192.614 208.442 193.686C208.442 194.341 208.263 194.922 207.906 195.414C207.549 195.913 207.05 196.3 206.417 196.576C208.04 199.003 209.105 200.567 209.604 201.282H207.072L204.48 197.142H203.259Z" fill="#293069"/>
<path d="M223.201 190.469H225.524L221.83 201.282H219.328L215.664 190.469H217.988L220.013 196.903C220.132 197.283 220.252 197.73 220.371 198.244C220.49 198.743 220.564 199.093 220.609 199.286C220.646 198.832 220.825 198.035 221.145 196.903L223.201 190.469Z" fill="#293069"/>
<path d="M232.948 201.282V190.469H235.242V201.282H232.948Z" fill="#293069"/>
<path d="M248.616 192.226C247.76 192.226 247.097 192.554 246.62 193.209C246.144 193.85 245.906 194.744 245.906 195.89C245.906 198.318 246.807 199.525 248.616 199.525C249.369 199.525 250.292 199.339 251.387 198.959V200.865C250.493 201.245 249.495 201.431 248.408 201.431C246.836 201.431 245.637 200.955 244.803 200.001C243.969 199.048 243.552 197.678 243.552 195.89C243.552 194.759 243.746 193.775 244.148 192.941C244.565 192.092 245.146 191.437 245.906 190.975C246.68 190.521 247.581 190.29 248.616 190.29C249.666 190.29 250.717 190.551 251.774 191.065L251.059 192.941C250.642 192.748 250.225 192.576 249.808 192.435C249.406 192.301 249.011 192.226 248.616 192.226Z" fill="#293069"/>
<path d="M265.976 201.282H259.75V190.469H265.976V192.346H262.044V194.729H265.708V196.605H262.044V199.376H265.976V201.282Z" fill="#293069"/>
<path d="M280.677 198.274C280.677 199.249 280.319 200.024 279.605 200.597C278.904 201.156 277.936 201.431 276.685 201.431C275.531 201.431 274.511 201.215 273.617 200.776V198.661C274.347 198.981 274.965 199.212 275.464 199.346C275.978 199.465 276.447 199.525 276.864 199.525C277.378 199.525 277.765 199.435 278.026 199.257C278.301 199.063 278.443 198.773 278.443 198.393C278.443 198.177 278.383 197.991 278.264 197.827C278.145 197.648 277.966 197.492 277.728 197.35C277.504 197.194 277.043 196.948 276.328 196.605C275.672 196.308 275.173 196.025 274.838 195.742C274.496 195.444 274.228 195.109 274.034 194.729C273.855 194.334 273.766 193.887 273.766 193.388C273.766 192.435 274.079 191.683 274.719 191.124C275.374 190.573 276.276 190.29 277.43 190.29C277.981 190.29 278.51 190.365 279.009 190.499C279.523 190.64 280.059 190.826 280.617 191.065L279.902 192.852C279.322 192.614 278.845 192.457 278.473 192.375C278.093 192.279 277.713 192.226 277.341 192.226C276.901 192.226 276.566 192.331 276.328 192.524C276.104 192.725 276 192.986 276 193.299C276 193.522 276.037 193.708 276.119 193.865C276.216 194.006 276.365 194.148 276.566 194.282C276.782 194.423 277.266 194.669 278.026 195.027C279.039 195.526 279.731 196.025 280.111 196.516C280.483 196.993 280.677 197.581 280.677 198.274Z" fill="#293069"/>
<mask id="mask1_8_191" style="mask-type:luminance" maskUnits="userSpaceOnUse" x="8" y="217" width="284" height="5">
<path d="M8 217.71H291.116V222H8V217.71Z" fill="white"/>
</mask>
<g mask="url(#mask1_8_191)">
<path d="M8 78.2969H291.116V361.413H8V78.2969Z" fill="#293069"/>
</g>
<mask id="mask2_8_191" style="mask-type:luminance" maskUnits="userSpaceOnUse" x="8" y="171" width="284" height="6">
<path d="M8 171.76H291.116V176.05H8V171.76Z" fill="white"/>
</mask>
<g mask="url(#mask2_8_191)">
<path d="M8 32.3471H291.116V315.464H8V32.3471Z" fill="#293069"/>
</g>
</g>
</svg>
