<svg width="350" height="150" viewBox="0 0 350 150" fill="none" xmlns="http://www.w3.org/2000/svg">
<mask id="mask0_8_191" style="mask-type:alpha" maskUnits="userSpaceOnUse" x="0" y="0" width="350" height="150">
<rect width="350" height="150" fill="#D9D9D9"/>
</mask>
<g mask="url(#mask0_8_191)">
<path d="M111.331 3.53621H120.149L131.529 55.8162L142.997 3.53621H151.755L152.947 68H145.708L144.993 21.2012L134.09 68H128.996L118.183 21.2012L117.468 68H110.14L111.331 3.53621Z" fill="#ffffff"/>
<path d="M178.944 68.715C172.584 68.715 168.108 66.8234 165.509 63.0252C162.902 59.2346 161.607 53.9991 161.607 47.3263V24.5674C161.607 17.4999 162.873 12.1378 165.42 8.48121C167.981 4.83204 172.487 3 178.944 3C184.738 3 188.893 4.57138 191.396 7.70669C193.913 10.8271 195.179 15.437 195.179 21.5289V26.6228H186.689V22.0949C186.689 19.116 186.548 16.8371 186.272 15.2434C186.011 13.6571 185.334 12.3836 184.246 11.4303C183.152 10.4771 181.416 10.0005 179.033 10.0005C176.591 10.0005 174.773 10.5218 173.582 11.5495C172.39 12.5847 171.601 14.0146 171.228 15.8391C170.871 17.6712 170.692 20.1213 170.692 23.1971V48.7562C170.692 52.033 170.945 54.6098 171.467 56.4716C172.003 58.3185 172.867 59.6442 174.058 60.4336C175.25 61.2304 176.903 61.6251 179.033 61.6251C181.312 61.6251 183.01 61.1336 184.127 60.1357C185.237 59.1228 185.944 57.7451 186.242 55.995C186.54 54.2523 186.689 51.8543 186.689 48.8158V44.0495H195.179V48.8158C195.179 55.2354 193.965 60.158 191.545 63.5912C189.139 67.0095 184.939 68.715 178.944 68.715Z" fill="#ffffff"/>
<path d="M220.245 68.715C213.929 68.715 209.401 66.9276 206.661 63.3529C203.935 59.7633 202.58 54.58 202.58 47.803V23.3758C202.58 16.6881 203.957 11.624 206.72 8.18332C209.476 4.72777 213.989 3 220.245 3C226.5 3 230.984 4.74267 233.709 8.21311C236.45 11.691 237.82 16.7477 237.82 23.3758V47.8625C237.82 54.5577 236.435 59.7112 233.68 63.3231C230.939 66.9202 226.456 68.715 220.245 68.715ZM220.245 61.6251C223.581 61.6251 225.83 60.657 227.007 58.7058C228.176 56.7397 228.764 53.7608 228.764 49.769V21.5289C228.764 17.5967 228.176 14.6997 227.007 12.8304C225.83 10.9463 223.581 10.0005 220.245 10.0005C216.849 10.0005 214.562 10.9463 213.393 12.8304C212.239 14.6997 211.665 17.5967 211.665 21.5289V49.769C211.665 53.7608 212.239 56.7397 213.393 58.7058C214.562 60.657 216.849 61.6251 220.245 61.6251Z" fill="#ffffff"/>
<path d="M46.619 125.282L43.9975 116.792H43.938C44.0348 118.52 44.0869 119.675 44.0869 120.248V125.282H42.0314V114.469H45.1593L47.7212 122.75H47.751L50.4618 114.469H53.5897V125.282H51.4448V120.159C51.4448 119.92 51.4448 119.645 51.4448 119.325C51.4597 119.012 51.5044 118.163 51.564 116.792H51.5044L48.7042 125.282H46.619Z" fill="#ffffff"/>
<path d="M68.999 125.282L68.2245 122.72H64.2625L63.488 125.282H61.0155L64.8285 114.409H67.6287L71.4715 125.282H68.999ZM67.6585 120.784C66.9435 118.446 66.5339 117.12 66.4371 116.822C66.3552 116.524 66.2956 116.286 66.2584 116.107C66.0945 116.725 65.6328 118.282 64.8583 120.784H67.6585Z" fill="#ffffff"/>
<path d="M81.2002 119.265H81.9449C82.6598 119.265 83.1812 119.146 83.5237 118.907C83.8812 118.669 84.0599 118.282 84.0599 117.746C84.0599 117.254 83.8812 116.897 83.5237 116.673C83.1663 116.457 82.6152 116.346 81.8853 116.346H81.2002V119.265ZM81.2002 121.142V125.282H78.9064V114.469H82.0641C83.5312 114.469 84.611 114.737 85.3111 115.273C86.026 115.809 86.3835 116.614 86.3835 117.686C86.3835 118.341 86.2048 118.922 85.8473 119.414C85.4898 119.913 84.9908 120.3 84.3578 120.576C85.9813 123.003 87.0463 124.567 87.5453 125.282H85.0132L82.4215 121.142H81.2002Z" fill="#ffffff"/>
<path d="M103.674 125.282H101.082L98.2226 120.725L97.2693 121.41V125.282H94.9755V114.469H97.2693V119.414L98.163 118.133L101.112 114.469H103.644L99.861 119.235L103.674 125.282Z" fill="#ffffff"/>
<path d="M117.33 125.282H111.104V114.469H117.33V116.346H113.398V118.729H117.062V120.605H113.398V123.376H117.33V125.282Z" fill="#ffffff"/>
<path d="M129.826 125.282H127.533V116.375H124.583V114.469H132.775V116.375H129.826V125.282Z" fill="#ffffff"/>
<path d="M140.496 125.282V114.469H142.79V125.282H140.496Z" fill="#ffffff"/>
<path d="M161.169 125.282H158.25L153.543 117.09H153.484C153.581 118.543 153.633 119.578 153.633 120.188V125.282H151.577V114.469H154.467L159.173 122.572H159.203C159.144 121.164 159.114 120.173 159.114 119.593V114.469H161.169V125.282Z" fill="#ffffff"/>
<path d="M174.074 119.205H178.363V124.806C177.663 125.044 177.008 125.208 176.397 125.282C175.779 125.379 175.154 125.431 174.521 125.431C172.867 125.431 171.616 124.955 170.767 124.001C169.911 123.033 169.486 121.648 169.486 119.861C169.486 118.118 169.978 116.755 170.976 115.78C171.966 114.789 173.344 114.29 175.116 114.29C176.226 114.29 177.299 114.521 178.334 114.975L177.589 116.792C176.792 116.42 175.965 116.226 175.116 116.226C174.119 116.226 173.329 116.569 172.733 117.239C172.138 117.895 171.84 118.781 171.84 119.89C171.84 121.067 172.078 121.968 172.555 122.601C173.031 123.219 173.731 123.525 174.67 123.525C175.146 123.525 175.63 123.48 176.129 123.376V121.112H174.074V119.205Z" fill="#ffffff"/>
<path d="M203.377 122.274C203.377 123.249 203.019 124.024 202.304 124.597C201.604 125.156 200.636 125.431 199.385 125.431C198.231 125.431 197.21 125.215 196.317 124.776V122.661C197.047 122.981 197.665 123.212 198.164 123.346C198.678 123.465 199.147 123.525 199.564 123.525C200.078 123.525 200.465 123.435 200.726 123.257C201.001 123.063 201.143 122.773 201.143 122.393C201.143 122.177 201.083 121.991 200.964 121.827C200.845 121.648 200.666 121.492 200.428 121.35C200.204 121.194 199.742 120.948 199.028 120.605C198.372 120.308 197.873 120.025 197.538 119.742C197.196 119.444 196.927 119.109 196.734 118.729C196.555 118.334 196.466 117.887 196.466 117.388C196.466 116.435 196.778 115.683 197.419 115.124C198.074 114.573 198.975 114.29 200.13 114.29C200.681 114.29 201.21 114.365 201.709 114.499C202.222 114.64 202.759 114.826 203.317 115.065L202.602 116.852C202.021 116.614 201.545 116.457 201.172 116.375C200.793 116.279 200.413 116.226 200.04 116.226C199.601 116.226 199.266 116.331 199.028 116.524C198.804 116.725 198.7 116.986 198.7 117.299C198.7 117.522 198.737 117.708 198.819 117.865C198.916 118.006 199.065 118.148 199.266 118.282C199.482 118.423 199.966 118.669 200.726 119.027C201.738 119.526 202.431 120.025 202.811 120.516C203.183 120.993 203.377 121.581 203.377 122.274Z" fill="#ffffff"/>
<path d="M217.639 125.282H211.413V114.469H217.639V116.346H213.707V118.729H217.371V120.605H213.707V123.376H217.639V125.282Z" fill="#ffffff"/>
<path d="M228.259 119.265H229.004C229.719 119.265 230.24 119.146 230.582 118.907C230.94 118.669 231.119 118.282 231.119 117.746C231.119 117.254 230.94 116.897 230.582 116.673C230.225 116.457 229.674 116.346 228.944 116.346H228.259V119.265ZM228.259 121.142V125.282H225.965V114.469H229.123C230.59 114.469 231.67 114.737 232.37 115.273C233.085 115.809 233.442 116.614 233.442 117.686C233.442 118.341 233.263 118.922 232.906 119.414C232.549 119.913 232.05 120.3 231.417 120.576C233.04 123.003 234.105 124.567 234.604 125.282H232.072L229.48 121.142H228.259Z" fill="#ffffff"/>
<path d="M248.201 114.469H250.524L246.83 125.282H244.328L240.664 114.469H242.988L245.013 120.903C245.132 121.283 245.252 121.73 245.371 122.244C245.49 122.743 245.564 123.093 245.609 123.286C245.646 122.832 245.825 122.035 246.145 120.903L248.201 114.469Z" fill="#ffffff"/>
<path d="M257.948 125.282V114.469H260.242V125.282H257.948Z" fill="#ffffff"/>
<path d="M273.616 116.226C272.76 116.226 272.097 116.554 271.62 117.209C271.144 117.85 270.906 118.744 270.906 119.89C270.906 122.318 271.807 123.525 273.616 123.525C274.369 123.525 275.292 123.339 276.387 122.959V124.865C275.493 125.245 274.495 125.431 273.408 125.431C271.836 125.431 270.637 124.955 269.803 124.001C268.969 123.048 268.552 121.678 268.552 119.89C268.552 118.759 268.746 117.775 269.148 116.941C269.565 116.092 270.146 115.437 270.906 114.975C271.68 114.521 272.581 114.29 273.616 114.29C274.666 114.29 275.717 114.551 276.774 115.065L276.059 116.941C275.642 116.748 275.225 116.576 274.808 116.435C274.406 116.301 274.011 116.226 273.616 116.226Z" fill="#ffffff"/>
<path d="M290.976 125.282H284.75V114.469H290.976V116.346H287.044V118.729H290.708V120.605H287.044V123.376H290.976V125.282Z" fill="#ffffff"/>
<path d="M305.677 122.274C305.677 123.249 305.319 124.024 304.605 124.597C303.904 125.156 302.936 125.431 301.685 125.431C300.531 125.431 299.511 125.215 298.617 124.776V122.661C299.347 122.981 299.965 123.212 300.464 123.346C300.978 123.465 301.447 123.525 301.864 123.525C302.378 123.525 302.765 123.435 303.026 123.257C303.301 123.063 303.443 122.773 303.443 122.393C303.443 122.177 303.383 121.991 303.264 121.827C303.145 121.648 302.966 121.492 302.728 121.35C302.504 121.194 302.043 120.948 301.328 120.605C300.672 120.308 300.173 120.025 299.838 119.742C299.496 119.444 299.228 119.109 299.034 118.729C298.855 118.334 298.766 117.887 298.766 117.388C298.766 116.435 299.079 115.683 299.719 115.124C300.374 114.573 301.276 114.29 302.43 114.29C302.981 114.29 303.51 114.365 304.009 114.499C304.523 114.64 305.059 114.826 305.617 115.065L304.902 116.852C304.322 116.614 303.845 116.457 303.473 116.375C303.093 116.279 302.713 116.226 302.341 116.226C301.901 116.226 301.566 116.331 301.328 116.524C301.104 116.725 301 116.986 301 117.299C301 117.522 301.037 117.708 301.119 117.865C301.216 118.006 301.365 118.148 301.566 118.282C301.782 118.423 302.266 118.669 303.026 119.027C304.039 119.526 304.731 120.025 305.111 120.516C305.483 120.993 305.677 121.581 305.677 122.274Z" fill="#ffffff"/>
<mask id="mask1_8_191" style="mask-type:luminance" maskUnits="userSpaceOnUse" x="33" y="141" width="284" height="5">
<path d="M33 141.71H316.116V146H33V141.71Z" fill="white"/>
</mask>
<g mask="url(#mask1_8_191)">
<path d="M33 2.29691H316.116V285.413H33V2.29691Z" fill="#ffffff"/>
</g>
<mask id="mask2_8_191" style="mask-type:luminance" maskUnits="userSpaceOnUse" x="33" y="95" width="284" height="6">
<path d="M33 95.7605H316.116V100.05H33V95.7605Z" fill="white"/>
</mask>
<g mask="url(#mask2_8_191)">
<path d="M33 -43.6529H316.116V239.464H33V-43.6529Z" fill="#ffffff"/>
</g>
</g>
</svg>
